PathFileType	4	(X/Y/Z)	G:\TennisProject\Miami_Dimitrov_Sinner_masked_Sports2D\Miami_Dimitrov_Sinner_masked_Sports2D_px_person03.trc
DataRate	CameraRate	NumFrames	NumMarkers	Units	OrigDataRate	OrigDataStartFrame	OrigNumFrames
25	25	13	22	m	25	187	499
Frame#	Time	Hip			RHip			RKnee			RAnkle			RBigToe			RSmallToe			RHeel			LHip			LKnee			LAnkle			LBigToe			LSmallToe			LHeel			Neck			Head			Nose			RShoulder			RElbow			RWrist			LShoulder			LElbow			LWrist		
		X1	Y1	Z1	X2	Y2	Z2	X3	Y3	Z3	X4	Y4	Z4	X5	Y5	Z5	X6	Y6	Z6	X7	Y7	Z7	X8	Y8	Z8	X9	Y9	Z9	X10	Y10	Z10	X11	Y11	Z11	X12	Y12	Z12	X13	Y13	Z13	X14	Y14	Z14	X15	Y15	Z15	X16	Y16	Z16	X17	Y17	Z17	X18	Y18	Z18	X19	Y19	Z19	X20	Y20	Z20	X21	Y21	Z21	X22	Y22	Z22
187	7.48	574.6899451473955	169.19823314942687	0.0	568.6314886543903	169.6090903103804	0.0	567.2660595812475	191.43479697977065	0.0	567.4183977413874	213.5911081976364	0.0	564.5428999279445	219.05651170762235	0.0	562.264663528293	218.44830406274409	0.0	568.5475120970681	217.13095676627262	0.0	580.421054411427	169.74902436750807	0.0	583.3000199164451	191.42625802400903	0.0	585.8880173652667	213.45502000182046	0.0	586.9582345861323	218.62863170699242	0.0	589.5755250403222	218.22037445017344	0.0	583.8252134684916	216.76853023298742	0.0	573.7505131848543	138.72612693281303	0.0	572.9296078947064	125.28756535480218	0.0	572.6533053478576	132.72340015683574	0.0	563.7913620251561	143.9763063601439	0.0	562.6950466814699	156.10674398957627	0.0	570.4409271377582	162.06428604596488	0.0	584.3851046128954	143.38059160268057	0.0	586.4294798604687	156.09338538311727	0.0	579.5257808199723	162.47194228136217	0.0
188	7.5200000000000005	574.6847984309179	169.26396632550293	0.0	568.6170277978458	169.62000975012927	0.0	567.2901575966528	191.48015627241836	0.0	567.4254860784765	213.64957084562334	0.0	564.6414502483302	219.00618232968958	0.0	562.4651810878756	218.37015165421474	0.0	568.6768746304595	217.1114895740285	0.0	580.3666694501868	169.78958655457006	0.0	583.2948227366721	191.41032916034067	0.0	585.8796503568392	213.47943776924188	0.0	587.0205687885342	218.30841717560003	0.0	589.5125744527094	217.9319611345479	0.0	584.2204002351366	216.5799602082002	0.0	573.6741220128657	138.72886306419906	0.0	572.8866997266526	125.32059487466759	0.0	572.6253858840313	132.7871516708039	0.0	563.8211257313206	144.08971825208312	0.0	562.701592659365	156.102012694956	0.0	570.4515694787322	162.02396563082206	0.0	584.3472283143042	143.3403330802351	0.0	586.3825037380775	156.21059988848495	0.0	579.1682226119814	162.43496288912692	0.0
189	7.5600000000000005	574.7001178661707	169.19405290829428	0.0	568.663057683415	169.59661203056504	0.0	567.2937770538044	191.4903492832256	0.0	567.3365823746676	213.59929261862922	0.0	564.699203203754	219.14083720315898	0.0	562.3028216802643	218.53492148128694	0.0	568.5684201385598	217.07595760718317	0.0	580.3895451929902	169.74057832191568	0.0	583.3062421139953	191.36921096762524	0.0	585.8852540245784	213.4130017767542	0.0	586.7200196815024	218.62649094810396	0.0	589.5574675303405	218.30662863653126	0.0	583.6914984597154	216.75099597100547	0.0	573.7499920216394	138.6759945704145	0.0	572.9290628017886	125.16953397711444	0.0	572.6648608514495	132.71076023617198	0.0	563.8371924812582	143.95793633945362	0.0	562.6177125074743	155.9529532241943	0.0	570.3401570686278	162.00777577692944	0.0	584.4729206430789	143.35614027724134	0.0	586.4961367685687	156.02503904278356	0.0	579.5152120090299	162.50765509720998	0.0
190	7.6000000000000005	574.7225835069573	169.10578425816968	0.0	568.6967408730844	169.6073135467185	0.0	567.2731340911503	191.53094323277173	0.0	567.2618288363578	213.5606459874923	0.0	564.7203878971168	219.27306929331797	0.0	562.134858114824	218.6953847707912	0.0	568.516873746154	217.11149454181918	0.0	580.4468883007088	169.67606184539045	0.0	583.2536624462492	191.44326091779539	0.0	585.8349184244678	213.38583588937826	0.0	586.511354291646	218.93893569722758	0.0	589.557208109126	218.64785177518618	0.0	583.2406024143866	216.95735216152485	0.0	573.8556095141537	138.71665508554173	0.0	573.0003838026887	125.15946282847182	0.0	572.7114104596943	132.69335676300415	0.0	563.8266665389506	143.81460465825748	0.0	562.5978593520491	155.9441861714659	0.0	570.2782341853539	162.01238497388738	0.0	584.5393565892308	143.43982182808384	0.0	586.6236342582504	155.95194712309916	0.0	579.8941945743442	162.56312573362086	0.0
191	7.640000000000001	574.6911122843586	169.15117588073198	0.0	568.6418494442794	169.71262648221744	0.0	567.2724269630648	191.68670159739173	0.0	567.3386794226423	213.70419878527866	0.0	564.7743332825187	219.238623642796	0.0	562.3534714187899	218.6319420160354	0.0	568.6840769928633	217.2490476990508	0.0	580.4813257817452	169.6992983338832	0.0	583.1874985287673	191.59771562194769	0.0	585.7708160562695	213.50128505090754	0.0	586.7487441924753	218.66793368359762	0.0	589.4502123956406	218.33312682349393	0.0	583.782107676323	216.9339859066587	0.0	573.8204814103088	138.778863917045	0.0	573.0004626008599	125.29942674571231	0.0	572.6717738214405	132.7206303681959	0.0	563.8079573181346	143.8449830513967	0.0	562.6411481480222	156.09378890238582	0.0	570.3375441526962	162.00443510972607	0.0	584.4367776819262	143.4628696440627	0.0	586.6703690484145	156.14621491258663	0.0	579.5617186787738	162.495074703952	0.0
192	7.68	574.6213667246528	169.34228512970836	0.0	568.5684562550581	169.8859615439148	0.0	567.257698716941	191.7707516332822	0.0	567.4509128527643	213.80357284401856	0.0	564.709156095154	219.1562601989278	0.0	562.5383152609397	218.52194755430773	0.0	568.7191977348675	217.36401662052356	0.0	580.5007168236065	169.86628976801683	0.0	583.2121049785571	191.66170477294017	0.0	585.7911260943049	213.6236854991492	0.0	586.953845751402	218.42675910133846	0.0	589.4184216084774	218.05421926333716	0.0	584.3162318224391	216.91793920072433	0.0	573.7280105142929	138.71522417373964	0.0	572.9403637284746	125.30491516042386	0.0	572.5742709864828	132.6557800946648	0.0	563.7826543114583	143.92387273670744	0.0	562.6340519141131	156.1188027778919	0.0	570.3237158910481	162.08766642358583	0.0	584.361976929424	143.4552040734617	0.0	586.6995293985711	156.23209341889347	0.0	579.2526445914937	162.58527005499138	0.0
193	7.72	574.5903887462016	169.5334476116749	0.0	568.5688722962907	169.99465867401966	0.0	567.2021419583281	191.63074850659348	0.0	567.3889116994123	213.67306712730277	0.0	564.4448443242701	219.21023632722955	0.0	562.270686678024	218.60484807613088	0.0	568.4637677094084	217.35160745555302	0.0	580.4841007974118	170.07947424101155	0.0	583.2905596148089	191.65190335790203	0.0	585.8679358073282	213.6124490625136	0.0	586.7270795848502	218.76847330304832	0.0	589.5385831802096	218.43704300289616	0.0	583.8713891726945	217.1166871885775	0.0	573.7216663052759	138.57950148463271	0.0	572.8900531241517	125.13963298917582	0.0	572.470535806366	132.53798761371098	0.0	563.7461649543679	143.95046980047292	0.0	562.5739718565613	156.00593841600107	0.0	570.1214883839925	162.37209990235274	0.0	584.4306747844603	143.5593698782998	0.0	586.7464834331886	156.09107300603705	0.0	579.7279502031729	163.00033989494483	0.0
194	7.76	574.6221278619115	169.6125191343204	0.0	568.5873676225158	169.97338591900132	0.0	567.160202381355	191.47698047112883	0.0	567.2550882884168	213.58797467792496	0.0	564.3093462506548	219.30104420267006	0.0	562.0395065578368	218.72281981442808	0.0	568.3134742629535	217.32167871258295	0.0	580.436422724503	170.18418445963457	0.0	583.3026686741989	191.69393970210905	0.0	585.8863736020362	213.59246990299724	0.0	586.4763423467841	219.05173849308792	0.0	589.611866253094	218.75864068758645	0.0	583.4472221853551	217.28357768775442	0.0	573.7543714226103	138.5111415103993	0.0	572.901313854896	125.03792820506021	0.0	572.400662241466	132.498544709894	0.0	563.7127740953363	143.99629190398537	0.0	562.569036904902	156.0356442063806	0.0	570.0394163878368	162.65219227051202	0.0	584.5333901476914	143.69332808148332	0.0	586.7614929060171	156.03378024960384	0.0	580.092241509445	163.29681544728044	0.0
195	7.8	574.6602159879565	169.63161725534218	0.0	568.5301716783418	169.9556094100653	0.0	567.1576045572035	191.52459436256427	0.0	567.2752729151408	213.74684420493458	0.0	564.4782331092624	219.2271715941792	0.0	562.2809810565135	218.619300753387	0.0	568.5013293030227	217.36592963873878	0.0	580.4536749301425	170.18453426281718	0.0	583.2556307243228	191.75829676369418	0.0	585.8440561763897	213.6892584394057	0.0	586.5984875076873	218.7373419039274	0.0	589.530534890594	218.40198008408584	0.0	584.0387747925203	217.20342112643368	0.0	573.7073293025394	138.53154182796678	0.0	572.9526295978978	125.10588853097107	0.0	572.4101881984175	132.53827338690937	0.0	563.6867673671367	144.0739551705853	0.0	562.6705931507295	156.26388210760564	0.0	570.3408424049811	162.64738058426377	0.0	584.5518306121301	143.6796748270985	0.0	586.7202824892852	156.16760919017918	0.0	579.4981364302023	163.12576677707315	0.0
196	7.84	574.6622570638453	169.63019103390656	0.0	568.4843014964749	169.98264796249384	0.0	567.171386044399	191.63888612653926	0.0	567.3694190232511	213.85662218477708	0.0	564.5757048511606	219.1051519901193	0.0	562.4726578903774	218.4695411756295	0.0	568.6670576129102	217.375664242434	0.0	580.5374591854551	170.1524736741068	0.0	583.2726723350335	191.72885847000626	0.0	585.8566186755114	213.74460206687178	0.0	586.8138350489846	218.47463356942754	0.0	589.4908390256786	218.103126587777	0.0	584.6480883966466	217.1313137494506	0.0	573.6522920747092	138.55708102840316	0.0	572.9779291474457	125.13863324337848	0.0	572.4396461724267	132.51709000338963	0.0	563.6892535146338	144.02241693697383	0.0	562.752672498104	156.3383540219814	0.0	570.6477701772154	162.40914916030837	0.0	584.5196009592744	143.5411064774902	0.0	586.6709276775941	156.23048545371	0.0	578.9728468375881	162.8175902526383	0.0
197	7.88	574.6458214310584	169.5778216077746	0.0	568.549081172495	169.98621013864727	0.0	567.1811400390771	191.6454986024996	0.0	567.3837108256889	213.690641284338	0.0	564.3785262347483	219.15244326899492	0.0	562.1897026592551	218.5461215322021	0.0	568.5096751447713	217.29605707639794	0.0	580.5459497127749	170.10127972445895	0.0	583.3405585019881	191.63391330863098	0.0	585.9205239102896	213.63101121741445	0.0	586.7964067576916	218.77494040538033	0.0	589.5949565121407	218.4542289967978	0.0	584.2329698623826	217.2535939912155	0.0	573.708975857317	138.54645378917797	0.0	572.9570601855376	125.02125398881924	0.0	572.3966284407404	132.42832291859582	0.0	563.721266874429	143.81160072502075	0.0	562.6823208480054	156.09133543335003	0.0	570.5490564604506	162.21522398785697	0.0	584.5093798974317	143.43223078627358	0.0	586.6765532416996	156.11697103101616	0.0	579.5040840658656	162.79609823202574	0.0
198	7.92	574.6354026522989	169.51521402060104	0.0	568.5936932086547	170.02236568600912	0.0	567.1655026216754	191.63929609675648	0.0	567.4045807264783	213.53720591192905	0.0	564.2430955836836	219.25439290029706	0.0	561.9580277220991	218.67616292058258	0.0	568.3363503635903	217.2622242091367	0.0	580.456154365458	170.09307121295976	0.0	583.3200849794493	191.6228673744775	0.0	585.9055376078327	213.52823854911026	0.0	586.730470421824	219.00784911514802	0.0	589.6338942533705	218.71145163358062	0.0	583.6874179232367	217.30915142372936	0.0	573.7645525265689	138.55273913333974	0.0	572.9109154460291	124.99180099363261	0.0	572.3447882280186	132.4555873756462	0.0	563.7161888823783	143.72191464014503	0.0	562.5797685025793	155.96456644726302	0.0	570.3798865794645	162.23762976110802	0.0	584.4518980791278	143.41743045977046	0.0	586.6970759919269	156.08639689277413	0.0	580.0197860181776	162.92511359494165	0.0
199	7.96	574.6328146584157	169.48262320652273	0.0	568.5119281264103	170.09676965838835	0.0	567.138370820762	191.70969996825306	0.0	567.4778618126204	213.6420209156376	0.0	564.3712260410628	219.20661330066105	0.0	562.1742121789648	218.60020313353624	0.0	568.4712860762468	217.34084192044935	0.0	580.428173717146	170.1723159977696	0.0	583.2365770694505	191.70817713830857	0.0	585.8268591377677	213.58488833250473	0.0	586.8195334730456	218.706988304386	0.0	589.5154484653276	218.30401815108445	0.0	584.0070276879062	217.17212885641896	0.0	573.6924283311416	138.62300707606693	0.0	572.8566946281348	125.17115795297653	0.0	572.3762313165341	132.61023503921535	0.0	563.6669887104655	143.90446785424382	0.0	562.6257684428668	156.2210354510044	0.0	570.5222354040379	162.3821895732439	0.0	584.3212921958586	143.4414183959487	0.0	586.630591898412	156.26268733105314	0.0	579.4370057576646	162.89201418289446	0.0
